<svg id="visual" viewBox="0 0 3440 1440" width="3440" height="1440" xmlns="http://www.w3.org/2000/svg" xmlns:xlink="http://www.w3.org/1999/xlink" version="1.1"><g stroke-width="1" stroke-linejoin="bevel"><path d="M1717 857L1706 578L1372 847Z" fill="#00807d" stroke="#00807d"></path><path d="M1706 578L1356 540L1372 847Z" fill="#001225" stroke="#001225"></path><path d="M1042 1123L1379 1135L1372 847Z" fill="#003e53" stroke="#003e53"></path><path d="M1372 847L1379 1135L1717 857Z" fill="#001225" stroke="#001225"></path><path d="M1379 1135L1757 1145L1717 857Z" fill="#006f79" stroke="#006f79"></path><path d="M1717 857L2062 570L1706 578Z" fill="#001225" stroke="#001225"></path><path d="M2030 306L1726 259L1706 578Z" fill="#006f79" stroke="#006f79"></path><path d="M1706 578L1726 259L1356 540Z" fill="#012034" stroke="#012034"></path><path d="M1726 259L1364 253L1356 540Z" fill="#00807d" stroke="#00807d"></path><path d="M2085 902L2062 570L1717 857Z" fill="#002f44" stroke="#002f44"></path><path d="M1005 566L1372 847L1356 540Z" fill="#002f44" stroke="#002f44"></path><path d="M1005 566L1007 873L1372 847Z" fill="#004e61" stroke="#004e61"></path><path d="M1757 1145L2085 902L1717 857Z" fill="#00807d" stroke="#00807d"></path><path d="M1006 280L1005 566L1356 540Z" fill="#004e61" stroke="#004e61"></path><path d="M2062 570L2030 306L1706 578Z" fill="#006f79" stroke="#006f79"></path><path d="M1007 873L1042 1123L1372 847Z" fill="#00907a" stroke="#00907a"></path><path d="M1757 1145L2068 1163L2085 902Z" fill="#012034" stroke="#012034"></path><path d="M2077 1440L2068 1163L1757 1145Z" fill="#00a070" stroke="#00a070"></path><path d="M1729 1440L1757 1145L1379 1135Z" fill="#00a070" stroke="#00a070"></path><path d="M1364 253L1006 280L1356 540Z" fill="#012034" stroke="#012034"></path><path d="M1065 1440L1378 1440L1379 1135Z" fill="#012034" stroke="#012034"></path><path d="M1378 1440L1729 1440L1379 1135Z" fill="#00807d" stroke="#00807d"></path><path d="M2035 0L1698 0L1726 259Z" fill="#012034" stroke="#012034"></path><path d="M1726 259L1698 0L1364 253Z" fill="#00a070" stroke="#00a070"></path><path d="M1364 253L1044 0L1006 280Z" fill="#012034" stroke="#012034"></path><path d="M1698 0L1338 0L1364 253Z" fill="#006f79" stroke="#006f79"></path><path d="M2429 855L2386 582L2085 902Z" fill="#003e53" stroke="#003e53"></path><path d="M2085 902L2386 582L2062 570Z" fill="#012034" stroke="#012034"></path><path d="M2062 570L2386 582L2030 306Z" fill="#00a070" stroke="#00a070"></path><path d="M2030 306L2035 0L1726 259Z" fill="#00a070" stroke="#00a070"></path><path d="M1042 1123L1065 1440L1379 1135Z" fill="#001225" stroke="#001225"></path><path d="M700 1440L1065 1440L1042 1123Z" fill="#27ae60" stroke="#27ae60"></path><path d="M716 299L691 607L1005 566Z" fill="#00907a" stroke="#00907a"></path><path d="M1005 566L691 607L1007 873Z" fill="#004e61" stroke="#004e61"></path><path d="M1007 873L672 1186L1042 1123Z" fill="#27ae60" stroke="#27ae60"></path><path d="M2429 254L2035 0L2030 306Z" fill="#012034" stroke="#012034"></path><path d="M1338 0L1044 0L1364 253Z" fill="#012034" stroke="#012034"></path><path d="M1006 280L716 299L1005 566Z" fill="#002f44" stroke="#002f44"></path><path d="M1729 1440L2077 1440L1757 1145Z" fill="#001225" stroke="#001225"></path><path d="M2421 1158L2429 855L2085 902Z" fill="#002f44" stroke="#002f44"></path><path d="M2421 1158L2085 902L2068 1163Z" fill="#002f44" stroke="#002f44"></path><path d="M691 607L653 827L1007 873Z" fill="#003e53" stroke="#003e53"></path><path d="M665 0L716 299L1006 280Z" fill="#005e6e" stroke="#005e6e"></path><path d="M319 538L344 901L653 827Z" fill="#006f79" stroke="#006f79"></path><path d="M2385 1440L2421 1158L2068 1163Z" fill="#00907a" stroke="#00907a"></path><path d="M653 827L672 1186L1007 873Z" fill="#002f44" stroke="#002f44"></path><path d="M2386 582L2429 254L2030 306Z" fill="#004e61" stroke="#004e61"></path><path d="M2753 305L2429 254L2386 582Z" fill="#012034" stroke="#012034"></path><path d="M2077 1440L2385 1440L2068 1163Z" fill="#00907a" stroke="#00907a"></path><path d="M672 1186L700 1440L1042 1123Z" fill="#005e6e" stroke="#005e6e"></path><path d="M2429 254L2419 0L2035 0Z" fill="#00a070" stroke="#00a070"></path><path d="M1044 0L665 0L1006 280Z" fill="#006f79" stroke="#006f79"></path><path d="M319 538L653 827L691 607Z" fill="#00907a" stroke="#00907a"></path><path d="M2421 1158L2720 826L2429 855Z" fill="#004e61" stroke="#004e61"></path><path d="M2429 855L2720 826L2386 582Z" fill="#003e53" stroke="#003e53"></path><path d="M2429 254L2748 0L2419 0Z" fill="#27ae60" stroke="#27ae60"></path><path d="M2775 1180L2720 826L2421 1158Z" fill="#003e53" stroke="#003e53"></path><path d="M653 827L380 1146L672 1186Z" fill="#003e53" stroke="#003e53"></path><path d="M672 1186L340 1440L700 1440Z" fill="#002f44" stroke="#002f44"></path><path d="M319 538L691 607L716 299Z" fill="#012034" stroke="#012034"></path><path d="M2720 826L2769 597L2386 582Z" fill="#005e6e" stroke="#005e6e"></path><path d="M344 901L380 1146L653 827Z" fill="#00907a" stroke="#00907a"></path><path d="M314 292L319 538L716 299Z" fill="#006f79" stroke="#006f79"></path><path d="M2769 597L2753 305L2386 582Z" fill="#002f44" stroke="#002f44"></path><path d="M665 0L314 292L716 299Z" fill="#005e6e" stroke="#005e6e"></path><path d="M2744 1440L2775 1180L2421 1158Z" fill="#003e53" stroke="#003e53"></path><path d="M2720 826L3100 826L2769 597Z" fill="#001225" stroke="#001225"></path><path d="M2385 1440L2744 1440L2421 1158Z" fill="#00907a" stroke="#00907a"></path><path d="M3057 0L2748 0L2753 305Z" fill="#001225" stroke="#001225"></path><path d="M2753 305L2748 0L2429 254Z" fill="#002f44" stroke="#002f44"></path><path d="M0 1178L380 1146L344 901Z" fill="#00907a" stroke="#00907a"></path><path d="M0 1178L340 1440L380 1146Z" fill="#27ae60" stroke="#27ae60"></path><path d="M380 1146L340 1440L672 1186Z" fill="#003e53" stroke="#003e53"></path><path d="M665 0L318 0L314 292Z" fill="#001225" stroke="#001225"></path><path d="M0 252L319 538L314 292Z" fill="#005e6e" stroke="#005e6e"></path><path d="M0 252L0 606L319 538Z" fill="#27ae60" stroke="#27ae60"></path><path d="M319 538L0 606L344 901Z" fill="#27ae60" stroke="#27ae60"></path><path d="M2775 1180L3100 826L2720 826Z" fill="#012034" stroke="#012034"></path><path d="M2769 597L3115 550L2753 305Z" fill="#003e53" stroke="#003e53"></path><path d="M3101 1163L3100 826L2775 1180Z" fill="#00907a" stroke="#00907a"></path><path d="M0 606L0 900L344 901Z" fill="#27ae60" stroke="#27ae60"></path><path d="M3100 826L3115 550L2769 597Z" fill="#005e6e" stroke="#005e6e"></path><path d="M3115 550L3082 284L2753 305Z" fill="#005e6e" stroke="#005e6e"></path><path d="M0 900L0 1178L344 901Z" fill="#005e6e" stroke="#005e6e"></path><path d="M3100 826L3440 565L3115 550Z" fill="#001225" stroke="#001225"></path><path d="M3059 1440L3101 1163L2775 1180Z" fill="#27ae60" stroke="#27ae60"></path><path d="M318 0L0 252L314 292Z" fill="#001225" stroke="#001225"></path><path d="M2744 1440L3059 1440L2775 1180Z" fill="#012034" stroke="#012034"></path><path d="M3440 0L3057 0L3082 284Z" fill="#003e53" stroke="#003e53"></path><path d="M3082 284L3057 0L2753 305Z" fill="#005e6e" stroke="#005e6e"></path><path d="M0 1178L0 1440L340 1440Z" fill="#012034" stroke="#012034"></path><path d="M318 0L0 0L0 252Z" fill="#005e6e" stroke="#005e6e"></path><path d="M3440 891L3440 565L3100 826Z" fill="#003e53" stroke="#003e53"></path><path d="M3115 550L3440 309L3082 284Z" fill="#006f79" stroke="#006f79"></path><path d="M3440 891L3100 826L3101 1163Z" fill="#001225" stroke="#001225"></path><path d="M3440 1173L3440 891L3101 1163Z" fill="#00807d" stroke="#00807d"></path><path d="M3440 565L3440 309L3115 550Z" fill="#002f44" stroke="#002f44"></path><path d="M3440 1440L3440 1173L3101 1163Z" fill="#00a070" stroke="#00a070"></path><path d="M3059 1440L3440 1440L3101 1163Z" fill="#006f79" stroke="#006f79"></path><path d="M3440 309L3440 0L3082 284Z" fill="#005e6e" stroke="#005e6e"></path></g></svg>